<!DOCTYPE svg PUBLIC "-//W3C//DTD SVG 20010904//EN" "http://www.w3.org/TR/2001/REC-SVG-20010904/DTD/svg10.dtd">
<svg version="1.0" xmlns="http://www.w3.org/2000/svg" width="468px" height="533px" viewBox="0 0 4680 5330" preserveAspectRatio="xMidYMid meet">
<g id="layer101" fill="#030303" stroke="none">
 <path d="M1308 4895 c-27 -15 -44 -47 -34 -63 3 -5 -2 -20 -12 -33 -17 -25 -18 -30 -27 -164 -3 -44 -12 -105 -22 -135 -27 -91 -55 -173 -68 -205 -43 -99 -47 -121 -32 -151 8 -16 40 -56 71 -89 31 -33 56 -63 56 -67 0 -3 12 -21 26 -38 15 -17 30 -46 34 -63 l7 -32 15 36 c24 56 16 116 -27 200 -20 41 -47 87 -58 103 -37 53 -20 143 40 205 33 35 47 68 48 116 2 71 16 119 42 147 22 23 24 32 18 65 -8 37 -9 43 -6 83 1 22 40 62 52 54 5 -2 -1 -19 -11 -37 -17 -26 -19 -42 -14 -90 4 -32 2 -76 -4 -100 -7 -23 -13 -55 -16 -72 -8 -61 -83 -199 -125 -233 -27 -22 -21 -92 12 -135 15 -19 27 -38 27 -42 0 -3 10 -22 23 -43 13 -20 29 -57 37 -82 7 -25 16 -49 19 -55 9 -18 0 -80 -17 -107 -9 -14 -38 -48 -63 -75 -25 -27 -54 -64 -64 -82 -54 -105 -78 -256 -55 -350 7 -29 9 -55 6 -58 -14 -14 -76 63 -116 145 -24 48 -47 94 -52 102 -4 8 -19 37 -34 64 -74 140 -160 227 -270 274 -113 47 -148 55 -258 58 -112 2 -157 -6 -155 -28 0 -9 2 -9 5 -2 5 13 44 7 44 -6 0 -4 -13 -13 -28 -19 -42 -17 -136 -118 -170 -181 -28 -51 -43 -93 -63 -179 l-8 -34 48 47 c25 25 50 46 54 46 4 0 18 9 30 20 33 31 112 52 212 56 76 3 83 2 45 -6 -53 -12 -90 -18 -108 -19 -7 -1 -11 -5 -8 -10 3 -4 45 -7 93 -6 107 3 192 -21 241 -68 18 -18 60 -71 93 -120 106 -153 174 -220 257 -251 71 -27 132 -39 167 -33 19 3 34 3 34 -1 -2 -14 14 -52 21 -52 4 0 13 -14 20 -30 16 -39 114 -129 183 -169 30 -17 90 -40 132 -51 43 -11 83 -24 89 -29 6 -5 25 -11 41 -14 40 -7 88 -22 112 -35 11 -6 33 -13 49 -16 16 -2 29 -5 29 -6 0 -1 9 -3 20 -5 12 -2 47 -16 78 -30 32 -14 62 -25 68 -25 5 0 35 -16 65 -35 30 -19 57 -35 61 -35 3 0 31 -20 61 -45 63 -52 85 -51 29 1 -23 22 -37 44 -37 60 0 13 2 24 5 24 3 0 90 -84 193 -187 209 -209 292 -322 292 -398 0 -48 -38 -167 -85 -271 -15 -32 -34 -77 -43 -99 -8 -22 -21 -47 -29 -56 -7 -8 -13 -22 -13 -30 0 -8 -9 -25 -20 -39 -11 -14 -20 -29 -20 -35 -1 -11 -35 -55 -43 -55 -3 0 -8 12 -12 27 -7 30 -23 53 -35 53 -5 0 -11 -22 -15 -50 -7 -53 -18 -60 -51 -35 -34 26 -45 19 -29 -19 8 -18 11 -36 8 -40 -4 -4 -8 -33 -8 -64 -1 -39 -5 -56 -13 -54 -7 1 -31 4 -54 5 -39 3 -40 3 -22 -12 22 -17 40 -49 74 -126 24 -53 37 -124 50 -270 4 -49 14 -114 23 -143 8 -29 16 -55 16 -57 2 -13 32 -82 41 -95 6 -8 13 -23 16 -32 4 -10 9 -18 13 -18 3 0 23 -15 44 -33 40 -36 73 -49 178 -68 63 -11 68 -11 98 10 17 12 31 27 31 32 0 5 18 29 40 53 22 24 40 53 40 64 0 12 16 37 35 56 36 36 44 56 24 56 -8 0 -9 11 -4 33 19 86 18 114 -6 131 -13 9 -35 16 -49 16 -57 0 -65 48 -21 125 28 48 31 51 97 66 38 9 87 24 109 33 52 21 103 26 135 14 26 -10 30 -11 93 -27 80 -20 200 -121 193 -163 -3 -13 -5 -33 -5 -45 -1 -14 -21 -38 -58 -68 -32 -25 -66 -53 -75 -60 -10 -9 -15 -21 -11 -31 3 -8 9 -12 12 -7 7 9 15 11 67 18 62 8 145 44 205 90 58 44 75 42 43 -3 -9 -13 -14 -25 -12 -28 3 -2 16 17 30 43 31 58 60 171 57 221 -1 21 1 44 4 52 8 19 5 39 -11 68 -7 12 -11 22 -8 22 12 0 -48 145 -102 250 -93 178 -141 266 -142 256 0 -14 31 -117 46 -153 8 -17 14 -33 14 -36 0 -3 5 -18 12 -34 7 -15 13 -32 13 -38 1 -5 5 -17 8 -25 14 -36 25 -90 18 -94 -7 -4 -108 57 -137 83 -23 19 -130 76 -174 92 -26 9 -54 13 -65 9 -11 -4 -23 -6 -27 -3 -7 4 -137 -19 -185 -33 -17 -5 -23 -2 -23 9 0 16 11 21 70 31 52 9 63 34 72 166 10 151 12 164 33 234 9 32 18 64 19 70 1 6 10 34 19 61 9 28 18 61 21 75 4 25 71 150 85 160 4 3 17 21 28 40 37 61 66 162 72 250 l6 85 100 1 c105 2 187 -18 211 -51 7 -9 28 -19 47 -22 28 -4 46 1 84 23 26 16 62 36 78 44 17 8 37 19 45 26 42 34 98 55 154 60 63 5 91 15 138 46 14 10 39 18 55 18 33 0 95 28 141 63 l32 24 -32 8 -33 8 35 6 c21 4 35 12 35 21 0 8 -15 18 -35 23 -19 4 -49 13 -67 18 -25 8 -38 6 -70 -12 -21 -12 -44 -26 -52 -33 -8 -6 -22 -10 -33 -8 -10 2 -18 -3 -18 -11 0 -24 -42 -36 -67 -19 -20 13 -26 12 -45 -2 -117 -82 -126 -86 -222 -117 -80 -26 -103 -24 -207 16 -95 36 -163 44 -202 23 -12 -6 -62 -40 -112 -76 -103 -73 -124 -107 -124 -205 -1 -58 -24 -122 -41 -112 -8 5 -8 18 3 45 3 8 8 46 12 84 7 86 34 138 88 173 23 15 44 30 47 34 11 13 98 67 133 84 31 15 54 17 123 12 47 -3 92 -3 100 0 8 3 41 40 74 82 68 88 99 121 200 213 61 56 82 69 126 78 30 6 56 16 60 21 3 5 10 7 15 4 5 -4 9 -1 9 4 0 6 9 11 20 11 11 0 20 4 20 8 0 10 71 58 99 67 25 8 35 34 19 53 -16 19 -83 49 -126 57 -27 4 -37 0 -74 -36 -47 -46 -75 -60 -128 -67 -19 -2 -42 -10 -51 -18 -8 -8 -22 -14 -31 -14 -17 0 -48 -31 -48 -49 0 -28 -42 -92 -82 -124 -24 -19 -65 -42 -91 -52 -26 -10 -59 -32 -73 -49 -13 -17 -29 -36 -34 -43 -10 -12 -71 -8 -101 8 -27 14 -260 5 -319 -13 -30 -8 -102 -18 -160 -21 -58 -3 -112 -8 -121 -12 -9 -3 -23 -20 -32 -38 -10 -18 -31 -54 -47 -82 -34 -56 -44 -78 -70 -150 -10 -27 -26 -51 -34 -53 -20 -4 -20 9 -1 55 8 19 15 43 15 52 0 27 112 231 143 263 1 0 67 4 146 7 l145 6 -61 60 c-33 33 -80 76 -103 94 -23 19 -48 40 -55 47 -37 37 -196 129 -316 183 -100 44 -153 60 -259 77 -14 2 -41 7 -60 10 -101 19 -156 25 -294 32 -100 5 -131 10 -136 22 -21 43 -29 69 -34 112 -3 26 -10 56 -15 67 -6 11 -11 28 -11 37 0 10 -10 45 -22 77 -32 84 -94 143 -210 199 -159 78 -157 78 -96 6 29 -35 58 -67 64 -73 18 -17 64 -83 64 -92 0 -4 14 -23 30 -42 38 -43 99 -151 106 -191 4 -17 10 -33 15 -36 4 -2 6 -11 2 -19 -3 -8 -1 -15 5 -15 14 0 8 -208 -6 -222 -7 -7 -12 -10 -12 -8 -2 95 -13 213 -23 240 -3 8 -13 40 -23 70 -25 76 -57 124 -123 189 -31 31 -75 83 -97 116 -47 69 -138 245 -127 245 4 0 2 5 -5 12 -24 24 -4 204 27 242 5 6 9 15 9 19 0 9 18 59 35 97 28 60 74 128 114 167 24 22 43 43 43 46 0 2 -10 7 -22 11 -22 5 -21 7 17 46 l40 41 -120 -5 c-66 -2 -127 -5 -135 -5 -8 -1 -33 1 -55 4 -26 3 -50 0 -67 -10z m2867 -1551 c14 -9 25 -20 25 -23 0 -10 -62 -1 -77 11 -36 29 11 39 52 12z m-994 -517 c-15 -15 -41 11 -41 42 l1 26 25 -29 c17 -20 22 -32 15 -39z m-31 -1076 c0 -26 -10 -51 -21 -51 -10 0 -12 31 -3 54 9 22 24 20 24 -3z m-20 -300 c0 -11 -87 -44 -103 -38 -6 2 6 13 28 24 43 22 75 28 75 14z m219 -112 c20 -6 56 -13 81 -16 44 -4 149 -51 182 -80 11 -10 14 -23 10 -46 -8 -39 -6 -91 3 -134 10 -48 -8 -41 -43 15 -29 47 -109 132 -124 132 -4 0 -8 6 -8 13 -1 15 -47 47 -118 82 l-53 25 -42 -33 c-55 -45 -141 -87 -177 -87 -20 0 -48 -15 -85 -45 -74 -61 -119 -85 -157 -85 -39 0 -28 11 32 33 25 9 65 34 89 56 41 37 46 47 50 116 1 6 10 -5 21 -22 l20 -33 57 22 c80 29 162 83 173 114 l10 25 22 -21 c12 -11 38 -25 57 -31z"/>
 <path d="M2020 4609 c-52 -10 -106 -21 -119 -24 -74 -14 -137 -29 -146 -35 -5 -4 -44 -18 -85 -30 -41 -13 -77 -26 -80 -30 -3 -3 -23 -13 -45 -22 -46 -18 -74 -58 -73 -108 0 -19 2 -29 5 -22 2 6 11 12 18 12 7 0 28 8 47 17 18 9 45 22 59 29 14 8 29 10 33 7 4 -4 10 -3 14 2 15 21 126 53 347 102 116 25 592 25 633 -1 6 -4 35 -9 64 -12 63 -7 216 -53 343 -104 32 -12 147 -70 185 -92 19 -12 44 -26 55 -32 78 -41 238 -170 340 -271 118 -117 225 -247 225 -272 0 -7 4 -13 9 -13 11 0 90 -134 137 -233 l37 -78 36 6 c20 3 41 6 47 7 8 1 7 9 -2 27 -7 14 -32 66 -56 116 -48 100 -164 279 -240 370 -67 79 -243 251 -290 283 -21 13 -38 29 -38 33 0 5 -4 9 -10 9 -5 0 -51 28 -102 63 -121 83 -285 163 -423 208 -33 11 -68 24 -77 29 -10 6 -29 10 -42 10 -14 0 -28 5 -31 10 -4 6 -10 8 -14 6 -4 -3 -25 0 -47 5 -50 12 -110 24 -194 37 -19 2 -123 6 -230 8 -162 2 -211 0 -290 -17z"/>
 <path d="M980 4096 c-67 -64 -160 -164 -160 -173 0 -3 14 -19 31 -35 l30 -29 21 27 c12 15 57 63 101 107 l79 80 -19 34 c-10 19 -20 36 -23 38 -3 2 -30 -20 -60 -49z"/>
 <path d="M280 3932 c0 -7 -11 -12 -24 -12 -14 0 -31 -6 -38 -13 -7 -8 -20 -17 -28 -21 -8 -3 -4 -4 10 0 14 3 37 8 52 11 25 5 45 29 33 41 -3 3 -5 0 -5 -6z"/>
 <path d="M547 3498 c-38 -79 -65 -149 -92 -238 -1 -3 -5 -14 -9 -25 -21 -55 -29 -90 -56 -245 -18 -104 -31 -289 -25 -360 3 -36 6 -92 7 -125 1 -33 4 -64 7 -69 2 -6 6 -19 7 -30 8 -74 18 -129 34 -181 10 -33 22 -75 25 -93 4 -18 13 -45 21 -60 8 -15 17 -44 20 -64 4 -21 13 -43 20 -49 8 -6 14 -18 14 -25 0 -8 4 -22 10 -32 5 -9 20 -39 33 -67 40 -82 71 -138 95 -172 12 -17 22 -34 22 -38 0 -3 13 -23 28 -43 16 -20 48 -63 72 -96 56 -74 216 -239 295 -303 93 -76 273 -196 335 -223 14 -6 52 -24 85 -40 79 -37 138 -59 360 -130 17 -5 53 -12 80 -16 28 -3 59 -8 70 -11 77 -19 337 -34 351 -21 4 5 1 25 -6 47 l-12 38 -97 7 c-118 8 -251 24 -313 37 -26 6 -54 12 -62 13 -9 1 -19 5 -22 9 -4 4 -16 7 -26 7 -10 0 -51 12 -91 26 -39 14 -77 26 -82 28 -6 1 -69 30 -140 65 -136 66 -272 152 -365 230 -75 62 -239 227 -275 276 -17 22 -38 49 -47 59 -10 11 -20 28 -24 38 -3 10 -10 18 -15 18 -5 0 -9 5 -9 12 0 6 -6 19 -14 27 -49 56 -174 317 -202 426 -3 11 -10 29 -15 40 -5 11 -11 29 -12 40 -2 11 -7 27 -10 35 -3 8 -10 40 -16 70 -6 30 -14 66 -17 80 -7 30 -9 65 -19 235 -7 136 14 434 33 458 5 7 12 26 15 42 25 126 43 192 57 200 6 4 10 16 10 27 0 12 16 54 35 94 19 40 35 75 35 77 0 3 -8 7 -17 10 -10 4 -28 13 -39 22 -21 15 -22 14 -47 -37z"/>
 <path d="M4123 3174 c-24 -19 -26 -24 -15 -50 11 -29 26 -89 27 -109 0 -5 4 -16 8 -22 5 -7 6 -17 3 -22 -3 -4 7 -8 22 -8 15 0 37 -4 50 -8 20 -7 22 -4 22 27 0 19 -3 38 -7 42 -5 4 -8 11 -8 14 -1 4 -4 23 -8 42 -4 19 -9 45 -12 58 -13 67 -32 76 -82 36z"/>
 <path d="M4178 2719 c-14 -8 -18 -24 -18 -77 0 -55 -15 -222 -24 -282 -3 -19 -19 -103 -21 -110 -1 -3 -5 -18 -9 -35 -28 -107 -78 -245 -88 -245 -5 0 -8 -6 -8 -14 0 -14 -59 -140 -96 -204 -10 -19 -52 -80 -91 -137 -40 -56 -73 -109 -73 -116 0 -8 6 -31 13 -52 l13 -37 25 27 c153 172 336 513 384 717 2 10 9 33 14 50 9 30 24 101 26 121 0 6 3 15 7 20 8 12 16 105 25 263 5 108 5 112 -15 112 -11 0 -26 2 -34 5 -7 2 -21 0 -30 -6z"/>
 <path d="M3215 1070 c-5 -8 -95 -53 -208 -104 l-28 -13 28 -18 c15 -10 33 -25 39 -34 10 -13 19 -12 75 15 100 47 189 98 189 109 0 14 -88 56 -95 45z"/>
 <path d="M3631 741 c-35 -38 -77 -76 -93 -85 -27 -17 -31 -17 -54 -1 -14 9 -28 14 -31 12 -2 -3 4 -10 15 -16 11 -6 28 -18 36 -27 9 -8 16 -11 16 -5 0 6 4 11 10 11 11 0 149 140 163 165 14 25 4 17 -62 -54z"/>
 </g>

</svg>