<?xml version="1.0" standalone="no"?>
<!DOCTYPE svg PUBLIC "-//W3C//DTD SVG 20010904//EN"
 "http://www.w3.org/TR/2001/REC-SVG-20010904/DTD/svg10.dtd">
<svg version="1.0" xmlns="http://www.w3.org/2000/svg"
 width="637.504898pt" height="635.092707pt" viewBox="0 0 637.504898 635.092707"
 preserveAspectRatio="xMidYMid meet">
<metadata>
Created by potrace 1.12, written by Peter Selinger 2001-2015
</metadata>
<g transform="translate(-10.126203,693.910280) scale(0.100000,-0.100000)"
fill="#000000" stroke="none">
<path d="M3808 6925 c-121 -20 -143 -31 -222 -108 -119 -117 -176 -270 -195
-529 -21 -278 -98 -507 -187 -560 -19 -11 -34 -22 -34 -25 0 -3 38 -3 85 -1
l85 6 0 -47 c0 -25 -7 -58 -14 -73 -15 -29 -9 -37 12 -16 9 9 12 6 12 -14 0
-38 -17 -79 -48 -110 -17 -19 -21 -28 -11 -28 20 0 115 46 123 59 4 6 11 11
15 11 9 0 41 -127 41 -166 l0 -29 20 25 c17 21 40 75 57 129 10 34 171 -278
263 -510 50 -124 90 -260 90 -303 -1 -41 -36 -125 -92 -217 -36 -59 -104 -133
-317 -345 -224 -224 -271 -266 -271 -245 0 26 54 83 255 269 l100 93 -205
-154 c-366 -274 -389 -285 -985 -463 -241 -73 -316 -106 -420 -190 -85 -67
-143 -136 -186 -221 l-32 -63 -51 0 c-89 0 -179 -20 -256 -57 -96 -46 -205
-154 -310 -308 -41 -60 -101 -142 -132 -182 -54 -68 -62 -73 -125 -93 -188
-58 -397 -37 -533 55 -66 45 -64 26 3 -24 92 -68 161 -96 292 -117 l80 -12
-81 -1 c-87 -1 -205 24 -271 57 -69 36 -160 109 -212 172 -59 71 -62 65 -27
-71 44 -173 117 -302 229 -405 36 -32 84 -69 108 -81 49 -25 37 -28 -43 -12
-75 15 -205 80 -262 130 -30 26 -45 35 -38 22 16 -29 103 -106 155 -136 159
-94 391 -106 632 -35 144 43 226 89 316 178 97 96 139 162 257 400 79 162 105
204 149 249 30 29 56 51 58 49 2 -2 -3 -31 -11 -63 -12 -44 -15 -89 -11 -170
9 -203 64 -349 176 -469 114 -122 121 -132 121 -185 0 -80 -61 -226 -155 -371
-23 -36 -45 -77 -48 -91 -10 -40 9 -90 58 -149 66 -79 131 -216 161 -340 22
-88 25 -117 19 -180 -10 -103 -8 -121 15 -145 20 -21 27 -55 13 -55 -15 0 -51
65 -57 101 -4 22 0 52 9 79 21 59 20 65 -19 107 -52 59 -60 81 -62 178 -2 105
-15 141 -73 205 -49 53 -78 109 -87 167 -6 39 -1 52 65 171 39 70 78 149 87
175 22 64 16 192 -10 232 l-19 28 -12 -36 c-23 -68 -106 -183 -232 -320 -69
-75 -69 -94 -3 -255 104 -256 148 -433 136 -541 -6 -46 -3 -57 14 -76 18 -19
19 -26 9 -54 -10 -29 -9 -36 11 -63 15 -20 20 -37 16 -54 -10 -37 10 -63 67
-90 59 -27 128 -32 147 -9 10 12 16 13 39 0 20 -10 78 -14 214 -16 103 -2 189
-1 191 2 2 2 -25 39 -60 82 -35 43 -64 83 -64 89 0 5 -29 39 -64 74 -51 51
-76 87 -117 171 -78 162 -130 314 -136 404 -7 93 7 139 85 294 81 158 164 277
264 377 100 100 124 139 167 262 39 111 61 232 62 350 l1 91 15 -75 c25 -133
0 -308 -64 -433 -42 -84 -220 -333 -320 -449 -51 -59 -93 -111 -93 -117 0 -20
173 50 290 119 179 105 233 197 290 495 26 135 50 192 82 199 13 3 93 7 178
10 361 11 659 73 901 185 190 88 287 147 418 251 109 87 301 266 301 282 0 4
-84 8 -187 8 -170 0 -191 2 -218 20 -36 23 -150 208 -193 312 -31 75 -126 411
-136 483 -7 51 3 25 38 -104 63 -224 232 -585 298 -634 24 -18 49 -21 185 -28
117 -5 179 -12 238 -29 119 -34 315 -38 454 -11 95 19 107 19 128 6 13 -9 23
-20 23 -24 0 -27 61 -76 136 -111 124 -57 213 -147 228 -231 8 -46 36 -76 86
-89 22 -6 43 -17 47 -24 4 -7 31 -16 60 -19 71 -8 139 -45 197 -107 l49 -52
81 21 c79 21 148 59 169 93 15 23 -1 39 -95 94 -45 26 -83 55 -85 63 -4 16
-56 37 -163 67 -80 23 -127 53 -237 155 -120 111 -211 212 -270 301 -54 80
-80 94 -161 83 -31 -4 -86 -8 -122 -8 -79 -1 -131 22 -270 119 -199 139 -212
157 -229 324 -6 58 -14 121 -17 140 l-5 35 25 -40 c22 -34 26 -51 26 -121 0
-134 32 -197 132 -266 34 -22 77 -55 97 -72 20 -18 65 -45 101 -61 89 -39 152
-38 245 3 39 16 103 40 143 52 66 20 79 21 135 10 121 -24 259 -88 342 -160
51 -44 68 -48 119 -23 34 16 37 16 56 -2 11 -10 20 -24 20 -32 0 -8 12 -13 33
-13 22 0 54 -15 100 -45 l67 -46 90 22 c98 23 135 44 125 72 -5 13 -19 17 -54
18 l-46 0 44 18 44 18 -34 25 c-74 55 -154 92 -211 99 -38 4 -75 18 -115 42
-49 29 -70 35 -142 41 -96 8 -127 19 -231 85 -228 144 -300 167 -376 114 -87
-59 -140 -75 -259 -81 -62 -2 -128 -2 -147 2 l-35 6 -6 98 c-11 172 -53 305
-131 417 -85 121 -114 180 -154 315 -22 74 -43 153 -47 175 -4 21 -13 51 -21
66 -7 15 -16 54 -20 86 -3 32 -12 78 -20 103 -11 36 -12 58 -4 100 9 45 7 70
-12 152 l-22 97 -45 7 c-101 14 -264 75 -316 118 -19 17 -19 17 4 5 101 -49
341 -109 496 -124 110 -10 187 24 460 203 50 33 92 58 94 56 7 -6 -24 -115
-72 -249 -58 -162 -87 -264 -79 -283 6 -16 97 143 207 358 78 155 128 272 140
330 3 19 13 50 21 68 13 27 13 52 5 160 -6 70 -16 147 -22 172 -13 57 -78 195
-120 257 -38 55 -179 205 -222 235 l-28 20 -39 -27 c-39 -27 -104 -98 -150
-164 l-24 -34 26 -21 c209 -174 196 -160 203 -221 l8 -57 -54 -55 c-77 -78
-153 -120 -287 -160 -131 -39 -129 -39 -293 12 -59 19 -131 37 -158 41 l-50 6
-41 80 c-34 65 -41 86 -36 114 8 38 19 46 93 64 36 8 54 18 58 31 10 31 3 141
-12 176 -12 29 -11 32 7 38 32 10 23 38 -30 90 -36 36 -50 57 -50 77 0 19 -18
51 -57 99 -109 135 -114 139 -174 138 -30 -1 -88 -7 -131 -14z m1239 -304 c94
-74 191 -190 238 -281 l18 -35 -39 34 c-102 90 -216 142 -359 165 l-74 11 33
35 c46 50 114 110 125 110 5 0 31 -17 58 -39z m97 -570 c-12 -28 -14 -58 -9
-131 l6 -95 -43 -27 c-66 -41 -170 -88 -195 -88 -63 0 -208 -46 -237 -75 -13
-14 -16 -14 -16 -2 0 42 -172 151 -297 187 -52 16 -69 9 -87 -32 l-14 -33 -1
54 c-1 50 -4 57 -42 93 -53 51 -104 84 -176 114 -53 23 -55 25 -19 19 57 -9
121 -45 196 -109 47 -40 78 -58 115 -67 104 -24 236 -91 306 -156 l26 -24 74
34 c123 56 314 233 389 361 28 47 46 29 24 -23z m-1158 -358 c-7 -7 -46 76
-45 97 0 8 12 -9 26 -38 14 -29 22 -56 19 -59z m429 -164 c35 -17 36 -18 10
-13 -16 3 -48 14 -70 25 -35 17 -36 18 -10 13 17 -3 48 -14 70 -25z m-157
-322 c118 -14 125 -27 13 -26 -80 0 -225 37 -151 37 19 1 81 -5 138 -11z m211
-115 c1 -32 -16 -19 -24 18 -8 38 6 65 16 30 4 -14 7 -35 8 -48z m-236 4 c71
-8 131 -16 133 -19 3 -3 -21 -8 -53 -12 -58 -6 -173 12 -212 35 -20 12 -21 12
132 -4z m247 -136 c0 -26 -3 -31 -10 -20 -5 8 -10 31 -10 50 0 26 3 31 10 20
5 -8 10 -31 10 -50z m-98 -61 c54 -28 100 -70 127 -120 l25 -44 -72 67 c-39
36 -91 78 -116 93 -25 15 -46 29 -46 32 0 7 40 -7 82 -28z m-428 -181 c19 -79
20 -110 5 -178 -14 -67 -20 -60 -10 13 11 78 -2 155 -44 266 -19 51 -35 96
-34 100 2 19 70 -144 83 -201z m198 -48 c60 -28 83 -33 197 -40 72 -5 146 -12
166 -16 62 -11 47 -21 -28 -18 -40 2 -115 5 -168 7 -76 3 -107 9 -150 29 -59
27 -123 78 -141 112 -7 15 -1 12 23 -11 19 -17 64 -46 101 -63z m368 -1114 c0
-3 -10 -22 -22 -43 -20 -33 -23 -35 -26 -16 -4 28 14 63 33 63 8 0 15 -2 15
-4z m1680 -46 c-13 -24 -45 -42 -67 -38 -12 2 -5 11 23 30 47 32 58 34 44 8z
m-240 -655 c0 -13 -68 -45 -94 -45 -34 0 -28 10 19 34 29 15 75 22 75 11z
m-3592 -2186 c59 -73 52 -83 -13 -19 -30 30 -55 58 -55 62 0 22 31 2 68 -43z"/>
<path d="M3140 6533 c-300 -20 -565 -75 -819 -169 -894 -332 -1575 -1132
-1755 -2060 -40 -208 -50 -316 -50 -539 0 -368 57 -674 189 -1011 44 -112 101
-234 110 -234 12 0 115 74 115 82 0 5 -11 31 -25 58 -78 154 -160 411 -200
624 -84 459 -44 952 115 1381 50 137 170 381 245 499 333 526 850 923 1445
1108 212 66 430 103 670 114 l143 7 18 43 c11 23 22 56 25 73 l7 31 -94 -2
c-52 -1 -114 -3 -139 -5z"/>
<path d="M4283 6273 c-35 -24 -63 -48 -63 -51 0 -4 28 -18 62 -31 34 -13 118
-52 185 -86 l123 -63 76 40 76 40 -79 45 c-84 49 -298 154 -310 152 -5 0 -36
-21 -70 -46z"/>
<path d="M5350 5563 c0 -15 -9 -48 -20 -72 -11 -24 -20 -46 -20 -50 0 -4 21
-34 46 -67 139 -176 287 -437 374 -654 110 -276 180 -632 180 -917 0 -105 0
-105 94 -101 l56 2 0 86 c0 192 -34 447 -85 652 -93 363 -295 767 -532 1057
-77 95 -93 106 -93 64z"/>
<path d="M5876 3337 c-6 -47 -38 -195 -52 -239 -4 -13 8 -26 42 -48 82 -51 88
-47 118 78 27 118 46 216 46 244 0 20 -44 26 -55 8 -8 -13 -51 -13 -74 0 -16
8 -19 4 -25 -43z"/>
<path d="M5674 2673 c-121 -271 -310 -542 -538 -768 -406 -404 -891 -648
-1471 -740 -138 -22 -471 -30 -620 -16 -297 29 -602 111 -869 235 l-96 45 0
-43 c0 -25 10 -62 25 -93 28 -56 45 -65 231 -136 423 -162 949 -208 1421 -126
897 156 1673 753 2049 1579 l52 115 -49 11 c-27 7 -60 15 -73 18 -21 5 -27 -2
-62 -81z"/>
<path d="M1193 2050 l-53 -49 161 -165 c89 -91 166 -166 173 -166 6 0 26 28
44 61 l32 60 -77 74 c-43 40 -109 109 -148 154 -38 45 -72 81 -75 81 -3 -1
-29 -23 -57 -50z"/>
</g>
</svg>
